<?xml version="1.0" encoding="utf-8"?>
<!-- Generator: Adobe Illustrator 16.0.0, SVG Export Plug-In . SVG Version: 6.00 Build 0)  -->
<!DOCTYPE svg PUBLIC "-//W3C//DTD SVG 1.1//EN" "http://www.w3.org/Graphics/SVG/1.1/DTD/svg11.dtd">
<svg version="1.1" id="Layer_1" xmlns="http://www.w3.org/2000/svg" xmlns:xlink="http://www.w3.org/1999/xlink" x="0px" y="0px"
	 width="275px" height="50px" viewBox="0 0 275 50" enable-background="new 0 0 275 50" xml:space="preserve">
<g>
	<polygon fill="#FC6E51" points="241.332,1.071 272.873,25.036 241.332,49 33.67,49 2.129,25.036 33.67,1.661 	"/>
	<path fill="#E9573F" d="M241.643,49H33.365L1.125,24.786L33.368,1h0.302l207.969-0.303l0.211,0.218l32.024,23.962L241.643,49z
		 M33.978,48h207.049l30.847-23.072L241.029,1.842L33.976,2.268L3.137,24.928L33.978,48z"/>
	<g>
		<g>
			<polygon fill="#FFCE54" points="32.861,44.839 5.386,24.942 32.863,5.068 37.961,8.746 15.564,24.944 37.963,41.164 			"/>
		</g>
		<g>
			<polygon fill="#FFCE54" points="242.143,44.839 237.04,41.164 259.436,24.944 237.041,8.746 242.139,5.068 269.613,24.942 			"/>
		</g>
	</g>
</g>
<g enable-background="new    ">
	<path fill="#FFCE54" d="M82.453,39.482l-1.949-6.398h-9.8l-1.949,6.398h-6.141l9.487-26.991h6.968l9.524,26.991H82.453z
		 M79.144,28.304c-1.802-5.797-2.816-9.076-3.043-9.836c-0.227-0.76-0.39-1.36-0.487-1.802c-0.405,1.569-1.563,5.449-3.475,11.638
		H79.144z"/>
	<path fill="#FFCE54" d="M97.677,29.168v10.314h-5.7v-26.88h7.833c3.652,0,6.354,0.665,8.107,1.995s2.63,3.349,2.63,6.058
		c0,1.581-0.436,2.988-1.306,4.22c-0.87,1.231-2.103,2.197-3.695,2.896c4.045,6.043,6.68,9.947,7.905,11.712h-6.324l-6.417-10.314
		H97.677z M97.677,24.534h1.838c1.802,0,3.132-0.3,3.99-0.9c0.857-0.601,1.287-1.544,1.287-2.832c0-1.274-0.438-2.182-1.314-2.721
		c-0.877-0.539-2.234-0.809-4.073-0.809h-1.728V24.534z"/>
	<path fill="#FFCE54" d="M128.252,16.959c-2.146,0-3.806,0.806-4.982,2.418s-1.766,3.858-1.766,6.739c0,5.993,2.249,8.99,6.748,8.99
		c1.888,0,4.174-0.472,6.857-1.416v4.781c-2.206,0.919-4.67,1.379-7.391,1.379c-3.91,0-6.901-1.187-8.973-3.559
		c-2.071-2.371-3.107-5.775-3.107-10.213c0-2.795,0.509-5.243,1.526-7.345c1.018-2.102,2.479-3.714,4.385-4.835
		c1.906-1.122,4.14-1.682,6.702-1.682c2.61,0,5.233,0.631,7.869,1.894l-1.839,4.633c-1.005-0.478-2.017-0.895-3.033-1.25
		C130.231,17.138,129.232,16.959,128.252,16.959z"/>
	<path fill="#FFCE54" d="M157.284,39.482l-1.949-6.398h-9.8l-1.949,6.398h-6.141l9.487-26.991h6.968l9.524,26.991H157.284z
		 M153.975,28.304c-1.802-5.797-2.816-9.076-3.043-9.836c-0.228-0.76-0.39-1.36-0.487-1.802c-0.404,1.569-1.562,5.449-3.476,11.638
		H153.975z"/>
	<path fill="#FFCE54" d="M189.11,25.785c0,4.425-1.26,7.813-3.778,10.167c-2.52,2.354-6.157,3.53-10.912,3.53h-7.612v-26.88h8.439
		c4.388,0,7.796,1.158,10.223,3.475C187.896,18.394,189.11,21.63,189.11,25.785z M183.189,25.932c0-5.773-2.55-8.66-7.648-8.66
		h-3.033v17.503h2.445C180.444,34.775,183.189,31.828,183.189,25.932z"/>
	<path fill="#FFCE54" d="M210.162,39.482h-15.481v-26.88h15.481v4.67h-9.781v5.902h9.101v4.669h-9.101v6.932h9.781V39.482z"/>
</g>
</svg>
