<?xml version="1.0" encoding="utf-8"?>
<!-- Generator: Adobe Illustrator 16.0.0, SVG Export Plug-In . SVG Version: 6.00 Build 0)  -->
<!DOCTYPE svg PUBLIC "-//W3C//DTD SVG 1.1//EN" "http://www.w3.org/Graphics/SVG/1.1/DTD/svg11.dtd">
<svg version="1.1" id="Layer_1" xmlns="http://www.w3.org/2000/svg" xmlns:xlink="http://www.w3.org/1999/xlink" x="0px" y="0px"
	 width="275px" height="50px" viewBox="0 0 275 50" enable-background="new 0 0 275 50" xml:space="preserve">
<g>
	<polygon fill="#FC6E51" points="241.207,1.071 272.748,25.036 241.207,49 33.545,49 2.004,25.036 33.545,1.661 	"/>
	<path fill="#E9573F" d="M241.518,49H33.24L1,24.786L33.243,1h0.302l207.969-0.303l0.211,0.218l32.024,23.962L241.518,49z
		 M33.853,48h207.049l30.847-23.072L240.904,1.842L33.851,2.268L3.012,24.928L33.853,48z"/>
	<g>
		<g>
			<polygon fill="#FFCE54" points="32.736,44.839 5.261,24.942 32.738,5.068 37.836,8.746 15.439,24.944 37.838,41.164 			"/>
		</g>
		<g>
			<polygon fill="#FFCE54" points="242.018,44.839 236.915,41.164 259.311,24.944 236.916,8.746 242.014,5.068 269.488,24.942 			
				"/>
		</g>
	</g>
</g>
<g enable-background="new    ">
	<path fill="#FFCE54" d="M83.854,39.482h-5.699V17.346h-7.3v-4.744h20.298v4.744h-7.299V39.482z"/>
	<path fill="#FFCE54" d="M98.265,39.482v-26.88h5.7v26.88H98.265z"/>
	<path fill="#FFCE54" d="M125.086,39.482l-6.472-21.089h-0.165c0.232,4.291,0.349,7.152,0.349,8.587v12.502h-5.093v-26.88h7.759
		l6.361,20.555h0.11l6.748-20.555h7.758v26.88h-5.312V26.76c0-0.601,0.009-1.294,0.027-2.078c0.018-0.784,0.102-2.868,0.248-6.251
		h-0.165l-6.932,21.051H125.086L125.086,39.482z"/>
	<path fill="#FFCE54" d="M167.664,39.482h-15.48v-26.88h15.48v4.67h-9.781v5.902h9.102v4.669h-9.102v6.933h9.781V39.482
		L167.664,39.482z"/>
	<path fill="#FFCE54" d="M181.945,29.168v10.314h-5.699v-26.88h7.833c3.651,0,6.354,0.665,8.106,1.995
		c1.754,1.33,2.631,3.349,2.631,6.058c0,1.581-0.437,2.988-1.307,4.22c-0.869,1.23-2.103,2.197-3.695,2.896
		c4.045,6.043,6.681,9.946,7.906,11.711h-6.324l-6.418-10.313L181.945,29.168L181.945,29.168z M181.945,24.534h1.839
		c1.802,0,3.132-0.3,3.989-0.9c0.857-0.601,1.287-1.544,1.287-2.832c0-1.274-0.438-2.182-1.313-2.721
		c-0.877-0.539-2.233-0.809-4.073-0.809h-1.729V24.534L181.945,24.534z"/>
</g>
</svg>
