<?xml version="1.0" encoding="utf-8"?>
<!-- Generator: Adobe Illustrator 16.0.0, SVG Export Plug-In . SVG Version: 6.00 Build 0)  -->
<!DOCTYPE svg PUBLIC "-//W3C//DTD SVG 1.1//EN" "http://www.w3.org/Graphics/SVG/1.1/DTD/svg11.dtd">
<svg version="1.1" id="Layer_1" xmlns="http://www.w3.org/2000/svg" xmlns:xlink="http://www.w3.org/1999/xlink" x="0px" y="0px"
	 width="275px" height="50px" viewBox="0 0 275 50" enable-background="new 0 0 275 50" xml:space="preserve">
<g>
	<polygon fill="#FC6E51" points="241.332,1.223 272.873,25.188 241.332,49.151 33.67,49.151 2.129,25.188 33.67,1.812 	"/>
	<path fill="#E9573F" d="M241.643,49.151H33.365L1.125,24.938L33.368,1.151h0.302l207.969-0.303l0.211,0.218l32.025,23.962
		L241.643,49.151z M33.979,48.151h207.049l30.848-23.071L241.029,1.993L33.977,2.42L3.138,25.08L33.979,48.151z"/>
	<g>
		<g>
			<polygon fill="#FFCE54" points="32.861,44.99 5.386,25.094 32.863,5.22 37.961,8.897 15.564,25.096 37.963,41.315 			"/>
		</g>
		<g>
			<polygon fill="#FFCE54" points="242.143,44.99 237.041,41.315 259.436,25.096 237.041,8.897 242.139,5.22 269.613,25.094 			"/>
		</g>
	</g>
</g>
<g enable-background="new    ">
	<path fill="#FFCE54" d="M94.339,38.256l-6.472-21.089h-0.166c0.233,4.291,0.35,7.152,0.35,8.587v12.502h-5.093v-26.88h7.759
		l6.361,20.555h0.11l6.748-20.555h7.759v26.88h-5.313V25.533c0-0.601,0.009-1.294,0.027-2.078s0.102-2.868,0.248-6.251h-0.165
		l-6.932,21.052H94.339z"/>
	<path fill="#FFCE54" d="M133.942,38.256h-15.481v-26.88h15.481v4.67h-9.781v5.902h9.101v4.669h-9.101v6.932h9.781V38.256z"/>
	<path fill="#FFCE54" d="M163.396,38.256h-7.244l-11.693-20.335h-0.165c0.232,3.592,0.349,6.153,0.349,7.686v12.649h-5.093v-26.88
		h7.189l11.675,20.132h0.129c-0.185-3.493-0.276-5.963-0.276-7.409V11.376h5.13V38.256z"/>
	<path fill="#FFCE54" d="M192.042,11.376v17.393c0,1.986-0.445,3.727-1.333,5.222c-0.89,1.496-2.173,2.642-3.853,3.438
		c-1.679,0.797-3.665,1.195-5.957,1.195c-3.456,0-6.141-0.886-8.053-2.657s-2.868-4.195-2.868-7.271V11.376h5.682v16.455
		c0,2.071,0.416,3.592,1.25,4.56c0.833,0.969,2.212,1.452,4.137,1.452c1.863,0,3.214-0.486,4.054-1.461s1.26-2.504,1.26-4.588
		V11.376H192.042z"/>
</g>
</svg>
