<?xml version="1.0" encoding="utf-8"?>
<!-- Generator: Adobe Illustrator 16.0.0, SVG Export Plug-In . SVG Version: 6.00 Build 0)  -->
<!DOCTYPE svg PUBLIC "-//W3C//DTD SVG 1.1//EN" "http://www.w3.org/Graphics/SVG/1.1/DTD/svg11.dtd">
<svg version="1.1" id="Layer_1" xmlns="http://www.w3.org/2000/svg" xmlns:xlink="http://www.w3.org/1999/xlink" x="0px" y="0px"
	 width="275px" height="50px" viewBox="0 0 275 50" enable-background="new 0 0 275 50" xml:space="preserve">
<g>
	<polygon fill="#FC6E51" points="241.332,1.223 272.873,25.188 241.332,49.151 33.67,49.151 2.129,25.188 33.67,1.812 	"/>
	<path fill="#E9573F" d="M241.643,49.151H33.366L1.125,24.938L33.369,1.151h0.302l207.968-0.303l0.211,0.218l32.025,23.962
		L241.643,49.151z M33.979,48.151h207.049l30.848-23.071L241.029,1.993L33.977,2.42L3.138,25.08L33.979,48.151z"/>
	<g>
		<g>
			<polygon fill="#FFCE54" points="32.861,44.99 5.386,25.094 32.863,5.22 37.961,8.897 15.564,25.096 37.963,41.315 			"/>
		</g>
		<g>
			<polygon fill="#FFCE54" points="242.143,44.99 237.041,41.315 259.436,25.096 237.041,8.897 242.139,5.22 269.613,25.094 			"/>
		</g>
	</g>
</g>
<g enable-background="new    ">
	<path fill="#FFCE54" d="M64.701,28.135v10.314h-5.699V11.568h7.832c3.652,0,6.355,0.666,8.108,1.996s2.63,3.349,2.63,6.058
		c0,1.581-0.436,2.987-1.306,4.22c-0.87,1.231-2.103,2.198-3.695,2.895c4.045,6.043,6.68,9.947,7.905,11.713h-6.324l-6.417-10.314
		H64.701z M64.701,23.5h1.839c1.802,0,3.132-0.3,3.99-0.9c0.857-0.601,1.287-1.544,1.287-2.831c0-1.275-0.438-2.182-1.315-2.722
		c-0.876-0.539-2.233-0.81-4.072-0.81h-1.729V23.5z"/>
	<path fill="#FFCE54" d="M99.341,38.449H83.859V11.568h15.481v4.67H89.56v5.902h9.101v4.67H89.56v6.932h9.781V38.449z"/>
	<path fill="#FFCE54" d="M120.815,30.984c0,2.426-0.873,4.338-2.62,5.736c-1.746,1.396-4.177,2.096-7.29,2.096
		c-2.868,0-5.405-0.539-7.611-1.617v-5.295c1.813,0.809,3.349,1.379,4.605,1.709c1.256,0.33,2.405,0.496,3.447,0.496
		c1.25,0,2.209-0.238,2.878-0.717c0.667-0.479,1.002-1.189,1.002-2.133c0-0.527-0.147-0.996-0.441-1.406s-0.727-0.807-1.297-1.186
		c-0.569-0.381-1.731-0.986-3.483-1.82c-1.643-0.773-2.875-1.514-3.696-2.225s-1.477-1.538-1.967-2.482
		c-0.49-0.943-0.735-2.047-0.735-3.309c0-2.379,0.806-4.248,2.418-5.608c1.611-1.36,3.839-2.04,6.683-2.04
		c1.397,0,2.73,0.164,3.999,0.496c1.269,0.33,2.596,0.797,3.98,1.396l-1.838,4.432c-1.435-0.588-2.62-0.999-3.558-1.232
		c-0.938-0.232-1.86-0.35-2.768-0.35c-1.079,0-1.906,0.252-2.482,0.754c-0.576,0.504-0.864,1.158-0.864,1.968
		c0,0.503,0.117,0.94,0.35,1.314s0.604,0.735,1.112,1.085s1.713,0.978,3.613,1.885c2.513,1.201,4.234,2.405,5.166,3.612
		C120.35,27.752,120.815,29.23,120.815,30.984z"/>
	<path fill="#FFCE54" d="M136.057,38.449h-5.699V16.312h-7.299v-4.744h20.297v4.744h-7.299V38.449z"/>
	<path fill="#FFCE54" d="M163.949,38.449L162,32.051h-9.801l-1.949,6.398h-6.141l9.488-26.991h6.967l9.525,26.991H163.949z
		 M160.639,27.27c-1.801-5.797-2.816-9.076-3.043-9.836c-0.227-0.76-0.389-1.359-0.486-1.801c-0.404,1.568-1.562,5.448-3.477,11.637
		H160.639z"/>
	<path fill="#FFCE54" d="M179.172,28.135v10.314h-5.699V11.568h7.832c3.652,0,6.355,0.666,8.107,1.996
		c1.754,1.33,2.631,3.349,2.631,6.058c0,1.581-0.436,2.987-1.307,4.22c-0.869,1.231-2.102,2.198-3.695,2.895
		c4.045,6.043,6.68,9.947,7.906,11.713h-6.324l-6.418-10.314H179.172z M179.172,23.5h1.838c1.803,0,3.133-0.3,3.99-0.9
		s1.287-1.544,1.287-2.831c0-1.275-0.438-2.182-1.314-2.722c-0.877-0.539-2.234-0.81-4.072-0.81h-1.729V23.5z"/>
	<path fill="#FFCE54" d="M208.699,38.449H203V16.312h-7.299v-4.744h20.297v4.744h-7.299V38.449z"/>
</g>
</svg>
