<?xml version="1.0" encoding="utf-8"?>
<!-- Generator: Adobe Illustrator 16.0.0, SVG Export Plug-In . SVG Version: 6.00 Build 0)  -->
<!DOCTYPE svg PUBLIC "-//W3C//DTD SVG 1.1//EN" "http://www.w3.org/Graphics/SVG/1.1/DTD/svg11.dtd">
<svg version="1.1" id="Layer_1" xmlns="http://www.w3.org/2000/svg" xmlns:xlink="http://www.w3.org/1999/xlink" x="0px" y="0px"
	 width="275px" height="50px" viewBox="0 0 275 50" enable-background="new 0 0 275 50" xml:space="preserve">
<g>
	<polygon fill="#FC6E51" points="241.333,0.374 272.874,24.34 241.333,48.303 33.671,48.303 2.13,24.34 33.671,0.965 	"/>
	<path fill="#E9573F" d="M241.644,48.303H33.366L1.126,24.09L33.369,0.303h0.302L241.64,0l0.211,0.218l32.024,23.961L241.644,48.303
		z M33.979,47.303h207.049l30.847-23.072L241.03,1.145L33.977,1.572L3.138,24.231L33.979,47.303z"/>
	<g>
		<g>
			<polygon fill="#FFCE54" points="32.862,44.143 5.387,24.245 32.864,4.371 37.962,8.05 15.565,24.247 37.964,40.467 			"/>
		</g>
		<g>
			<polygon fill="#FFCE54" points="242.144,44.143 237.041,40.467 259.437,24.247 237.042,8.05 242.14,4.371 269.614,24.245 			"/>
		</g>
	</g>
</g>
<g enable-background="new    ">
	<path fill="#FFCE54" d="M46.84,38.785v-26.88h5.7v26.88H46.84z"/>
	<path fill="#FFCE54" d="M83.152,38.785h-7.244L64.215,18.451H64.05c0.232,3.592,0.349,6.153,0.349,7.686v12.648h-5.093v-26.88
		h7.189L78.17,32.037h0.129c-0.185-3.492-0.276-5.963-0.276-7.408V11.906h5.13L83.152,38.785L83.152,38.785z"/>
	<path fill="#FFCE54" d="M105.252,11.906h5.755l-9.138,26.879h-6.215l-9.119-26.879h5.755L97.346,27.9
		c0.282,0.945,0.573,2.045,0.874,3.301c0.3,1.26,0.487,2.131,0.561,2.621c0.135-1.129,0.595-3.102,1.379-5.922L105.252,11.906z"/>
	<path fill="#FFCE54" d="M130.846,38.785l-1.949-6.398h-9.8l-1.949,6.398h-6.141l9.487-26.99h6.968l9.524,26.99H130.846z
		 M127.536,27.607c-1.802-5.797-2.816-9.076-3.043-9.836c-0.228-0.76-0.39-1.36-0.487-1.802c-0.404,1.569-1.562,5.449-3.476,11.638
		H127.536z"/>
	<path fill="#FFCE54" d="M162.672,25.088c0,4.425-1.26,7.814-3.778,10.167c-2.52,2.354-6.156,3.529-10.912,3.529h-7.611v-26.88
		h8.439c4.387,0,7.795,1.158,10.223,3.475C161.458,17.697,162.672,20.933,162.672,25.088z M156.751,25.235
		c0-5.771-2.55-8.659-7.648-8.659h-3.033v17.502h2.445C154.006,34.078,156.751,31.131,156.751,25.235z"/>
	<path fill="#FFCE54" d="M183.724,38.785h-15.48v-26.88h15.48v4.67h-9.781v5.902h9.102v4.669h-9.102v6.932h9.781V38.785z"/>
	<path fill="#FFCE54" d="M195.03,28.471v10.314h-5.699v-26.88h7.833c3.651,0,6.354,0.665,8.106,1.995
		c1.754,1.33,2.631,3.349,2.631,6.058c0,1.581-0.437,2.987-1.307,4.219c-0.869,1.231-2.103,2.196-3.695,2.895
		c4.045,6.043,6.681,9.947,7.906,11.711h-6.324l-6.418-10.312H195.03L195.03,28.471z M195.03,23.838h1.839
		c1.802,0,3.132-0.3,3.989-0.901c0.857-0.601,1.287-1.544,1.287-2.832c0-1.274-0.438-2.182-1.313-2.721
		c-0.877-0.539-2.233-0.809-4.073-0.809h-1.729V23.838L195.03,23.838z"/>
	<path fill="#FFCE54" d="M230.056,31.32c0,2.428-0.873,4.34-2.619,5.736c-1.746,1.398-4.178,2.098-7.291,2.098
		c-2.867,0-5.404-0.541-7.61-1.619V32.24c1.813,0.811,3.349,1.379,4.604,1.709c1.256,0.332,2.405,0.498,3.447,0.498
		c1.25,0,2.209-0.24,2.878-0.717c0.667-0.479,1.002-1.188,1.002-2.133c0-0.527-0.147-0.996-0.44-1.408
		c-0.295-0.41-0.728-0.805-1.297-1.186c-0.569-0.379-1.731-0.986-3.483-1.82c-1.644-0.771-2.875-1.514-3.696-2.224
		c-0.82-0.711-1.477-1.538-1.967-2.482c-0.49-0.943-0.734-2.046-0.734-3.309c0-2.378,0.805-4.247,2.418-5.608
		c1.61-1.36,3.838-2.041,6.683-2.041c1.397,0,2.729,0.165,3.999,0.496c1.269,0.331,2.596,0.797,3.979,1.397l-1.838,4.431
		c-1.435-0.588-2.62-0.999-3.558-1.232c-0.938-0.233-1.86-0.35-2.768-0.35c-1.08,0-1.906,0.251-2.482,0.754
		s-0.864,1.158-0.864,1.967c0,0.503,0.117,0.941,0.351,1.314c0.231,0.374,0.604,0.735,1.111,1.085s1.713,0.978,3.613,1.885
		c2.513,1.201,4.234,2.406,5.166,3.613S230.056,29.568,230.056,31.32z"/>
</g>
</svg>
