<?xml version="1.0" encoding="utf-8"?>
<!-- Generator: Adobe Illustrator 16.0.0, SVG Export Plug-In . SVG Version: 6.00 Build 0)  -->
<!DOCTYPE svg PUBLIC "-//W3C//DTD SVG 1.1//EN" "http://www.w3.org/Graphics/SVG/1.1/DTD/svg11.dtd">
<svg version="1.1" id="Layer_1" xmlns="http://www.w3.org/2000/svg" xmlns:xlink="http://www.w3.org/1999/xlink" x="0px" y="0px"
	 width="200px" height="50px" viewBox="0 0 200 50" enable-background="new 0 0 200 50" xml:space="preserve">
<g>
	<polygon fill="#FC6E51" points="175.882,1.071 198.666,25.036 175.882,49 25.869,49 3.084,25.036 25.869,1.661 	"/>
	<path fill="#E9573F" d="M176.105,49H25.649L2.359,24.786L25.651,1h0.218l150.234-0.303l0.154,0.218l23.133,23.962L176.105,49z
		 M26.092,48h149.57l22.283-23.072L175.663,1.842L26.09,2.268L3.812,24.928L26.092,48z"/>
	<g>
		<g>
			<polygon fill="#FFCE54" points="25.285,44.839 5.437,24.942 25.286,5.068 28.969,8.746 12.79,24.944 28.97,41.164 			"/>
		</g>
		<g>
			<polygon fill="#FFCE54" points="176.466,44.839 172.781,41.164 188.96,24.944 172.782,8.746 176.465,5.068 196.312,24.942 			"/>
		</g>
	</g>
</g>
</svg>
