<?xml version="1.0" encoding="utf-8"?>
<!-- Generator: Adobe Illustrator 16.0.0, SVG Export Plug-In . SVG Version: 6.00 Build 0)  -->
<!DOCTYPE svg PUBLIC "-//W3C//DTD SVG 1.1//EN" "http://www.w3.org/Graphics/SVG/1.1/DTD/svg11.dtd">
<svg version="1.1" id="Layer_1" xmlns="http://www.w3.org/2000/svg" xmlns:xlink="http://www.w3.org/1999/xlink" x="0px" y="0px"
	 width="30px" height="30px" viewBox="0 0 30 30" enable-background="new 0 0 30 30" xml:space="preserve">
<polygon fill="#FFCE54" points="20.988,18.595 16.987,18.595 16.987,22.597 13.013,22.597 13.013,18.595 9.012,18.595 9.012,14.592 
	5.01,14.592 5.01,6.618 12.985,6.618 12.985,10.619 17.015,10.619 17.015,6.618 24.99,6.618 24.99,14.592 20.988,14.592 "/>
<polygon fill="#FC6E51" points="12.999,6.604 12.999,2.602 8.998,2.602 4.996,2.602 4.996,6.604 8.998,6.604 "/>
<rect x="12.999" y="6.604" fill="#FC6E51" width="4.002" height="4.001"/>
<polygon fill="#FC6E51" points="4.996,6.604 0.995,6.604 0.995,10.605 0.995,14.607 4.996,14.607 4.996,10.605 "/>
<rect x="4.996" y="14.607" fill="#FC6E51" width="4.002" height="4.001"/>
<rect x="8.998" y="18.608" fill="#FC6E51" width="4.001" height="4.002"/>
<polygon fill="#FC6E51" points="25.004,10.605 25.004,14.607 29.005,14.607 29.005,10.605 29.005,6.604 25.004,6.604 "/>
<rect x="21.002" y="14.607" fill="#FC6E51" width="4.002" height="4.001"/>
<rect x="17.001" y="18.608" fill="#FC6E51" width="4.001" height="4.002"/>
<rect x="12.999" y="22.61" fill="#FC6E51" width="4.002" height="4"/>
<polygon fill="#FC6E51" points="25.004,6.604 25.004,2.602 21.002,2.602 17.001,2.602 17.001,6.604 21.002,6.604 "/>
</svg>
