<?xml version="1.0" encoding="utf-8"?>
<!-- Generator: Adobe Illustrator 16.0.0, SVG Export Plug-In . SVG Version: 6.00 Build 0)  -->
<!DOCTYPE svg PUBLIC "-//W3C//DTD SVG 1.1//EN" "http://www.w3.org/Graphics/SVG/1.1/DTD/svg11.dtd">
<svg version="1.1" id="Layer_1" xmlns="http://www.w3.org/2000/svg" xmlns:xlink="http://www.w3.org/1999/xlink" x="0px" y="0px"
	 width="50px" height="50px" viewBox="0 0 50 50" enable-background="new 0 0 50 50" xml:space="preserve">
<rect x="0.375" y="28.949" fill="#9797A0" width="49.25" height="3.518"/>
<rect x="8.583" y="24.259" fill="#9797A0" width="32.833" height="4.69"/>
<rect x="14.446" y="19.568" fill="#9797A0" width="21.107" height="4.69"/>
<rect x="19.137" y="16.051" fill="#9797A0" width="11.727" height="3.518"/>
<rect x="19.137" y="12.533" fill="#9797A0" width="11.727" height="3.518"/>
<rect x="22.655" y="7.842" fill="#63727B" width="4.691" height="4.69"/>
<rect x="22.655" y="4.324" fill="#9797A0" width="4.691" height="3.518"/>
<rect x="19.137" y="32.467" fill="#9797A0" width="11.727" height="4.691"/>
<rect x="22.655" y="37.158" fill="#9797A0" width="4.691" height="3.518"/>
<rect x="37.898" y="32.467" fill="#63727B" width="3.519" height="4.691"/>
<rect x="41.417" y="32.467" fill="#FB6D50" width="4.69" height="4.691"/>
<rect x="3.893" y="32.467" fill="#FB6D50" width="4.69" height="4.691"/>
<rect x="8.583" y="32.467" fill="#63727B" width="3.518" height="4.691"/>
<rect x="19.137" y="24.259" fill="#63727B" width="11.727" height="8.208"/>
<rect x="22.655" y="16.051" fill="#EAEB3B" width="4.691" height="12.898"/>
</svg>
